<svg width="100" height="100" viewBox="0 0 100 100" fill="none" xmlns="http://www.w3.org/2000/svg">
<circle cx="50" cy="50" r="49.5" fill="white" stroke="#EDEDED"/>
<path d="M50.0001 83.3337C31.5901 83.3337 16.6667 68.4103 16.6667 50.0003C16.6667 31.5903 31.5901 16.667 50.0001 16.667C68.4101 16.667 83.3334 31.5903 83.3334 50.0003C83.3334 68.4103 68.4101 83.3337 50.0001 83.3337ZM33.3334 50.0003C33.3334 54.4206 35.0894 58.6598 38.215 61.7854C41.3406 64.911 45.5798 66.667 50.0001 66.667C54.4204 66.667 58.6596 64.911 61.7852 61.7854C64.9108 58.6598 66.6668 54.4206 66.6668 50.0003H60.0001C60.0001 52.6525 58.9465 55.196 57.0712 57.0714C55.1958 58.9468 52.6522 60.0003 50.0001 60.0003C47.3479 60.0003 44.8044 58.9468 42.929 57.0714C41.0536 55.196 40.0001 52.6525 40.0001 50.0003H33.3334Z" fill="#EDEDED"/>
</svg>
