<svg width="50" height="50" viewBox="0 0 50 50" fill="none" xmlns="http://www.w3.org/2000/svg">
<rect width="50" height="50" rx="25" fill="white"/>
<path d="M31.9391 21.6991C32.1384 21.6991 32.3193 21.7861 32.4623 21.9331C32.5955 22.0901 32.6626 22.2851 32.6432 22.4911C32.6432 22.5591 32.1102 29.299 31.8058 32.136C31.6152 33.877 30.4929 34.934 28.8094 34.963C27.5149 34.992 26.2496 35.002 25.0038 35.002C23.6811 35.002 22.3876 34.992 21.1321 34.963C19.505 34.924 18.3817 33.848 18.2008 32.136C17.8876 29.289 17.3644 22.5591 17.3547 22.4911C17.3449 22.2851 17.4111 22.0901 17.5453 21.9331C17.6776 21.7861 17.8682 21.6991 18.0685 21.6991H31.9391ZM27.0647 15.002C27.9488 15.002 28.7385 15.6189 28.967 16.4989L29.1304 17.2289C29.2627 17.8239 29.7781 18.2449 30.3714 18.2449H33.2871C33.6761 18.2449 34 18.5679 34 18.9789V19.3589C34 19.7599 33.6761 20.0929 33.2871 20.0929H16.7139C16.3239 20.0929 16 19.7599 16 19.3589V18.9789C16 18.5679 16.3239 18.2449 16.7139 18.2449H19.6296C20.2218 18.2449 20.7373 17.8239 20.8705 17.2299L21.0232 16.5479C21.2605 15.6189 22.0415 15.002 22.9353 15.002H27.0647Z" fill="#F15A5B"/>
</svg>
