<svg width="24" height="24" viewBox="0 0 24 24" fill="none" xmlns="http://www.w3.org/2000/svg">
<path d="M18.9391 8.69909C19.1384 8.69909 19.3193 8.78609 19.4623 8.93308C19.5955 9.09008 19.6626 9.28508 19.6432 9.49108C19.6432 9.55908 19.1102 16.299 18.8058 19.136C18.6152 20.877 17.4929 21.934 15.8094 21.963C14.5149 21.992 13.2496 22.002 12.0038 22.002C10.6811 22.002 9.38763 21.992 8.13206 21.963C6.50498 21.924 5.38168 20.848 5.20079 19.136C4.88763 16.289 4.36439 9.55908 4.35467 9.49108C4.34494 9.28508 4.41108 9.09008 4.54529 8.93308C4.67756 8.78609 4.86818 8.69909 5.06852 8.69909H18.9391ZM14.0647 2.00195C14.9488 2.00195 15.7385 2.61895 15.967 3.49894L16.1304 4.22893C16.2627 4.82393 16.7781 5.24492 17.3714 5.24492H20.2871C20.6761 5.24492 21 5.56792 21 5.97891V6.35891C21 6.75991 20.6761 7.0929 20.2871 7.0929H3.71385C3.32386 7.0929 3 6.75991 3 6.35891V5.97891C3 5.56792 3.32386 5.24492 3.71385 5.24492H6.62957C7.22185 5.24492 7.7373 4.82393 7.87054 4.22993L8.02323 3.54794C8.26054 2.61895 9.0415 2.00195 9.93527 2.00195H14.0647Z" fill="#F15A5B"/>
</svg>
