<svg width="24" height="24" viewBox="0 0 24 24" fill="none" xmlns="http://www.w3.org/2000/svg">
<path d="M22 5.5C22 4.57174 21.6313 3.6815 20.9749 3.02513C20.3185 2.36875 19.4283 2 18.5 2C17.5717 2 16.6815 2.36875 16.0251 3.02513C15.3687 3.6815 15 4.57174 15 5.5V6C15 6.79565 14.6839 7.55871 14.1213 8.12132C13.5587 8.68393 12.7956 9 12 9C10 9 9 6 6 6C4.93913 6 3.92172 6.42143 3.17157 7.17157C2.42143 7.92172 2 8.93913 2 10V11H4V10C4 9.46957 4.21071 8.96086 4.58579 8.58579C4.96086 8.21071 5.46957 8 6 8C6.86 8 7.42 8.45 8.32 9.24C9.28 10.27 10.6 10.9 12 11C13.3261 11 14.5979 10.4732 15.5355 9.53553C16.4732 8.59785 17 7.32608 17 6V5.5C17 5.10218 17.158 4.72064 17.4393 4.43934C17.7206 4.15804 18.1022 4 18.5 4C18.8978 4 19.2794 4.15804 19.5607 4.43934C19.842 4.72064 20 5.10218 20 5.5C19.86 6.35 19.58 7.18 19.17 7.94C18.5 9.2 18.11 10.58 18 12C18.09 13.37 18.5 14.71 19.21 15.89C19.6 16.54 19.87 17.25 20 18C20 18.5304 19.7893 19.0391 19.4142 19.4142C19.0391 19.7893 18.5304 20 18 20C17.4696 20 16.9609 19.7893 16.5858 19.4142C16.2107 19.0391 16 18.5304 16 18C16 17.0054 15.6049 16.0516 14.9017 15.3483C14.1984 14.6451 13.2446 14.25 12.25 14.25C11.2554 14.25 10.3016 14.6451 9.59835 15.3483C8.89509 16.0516 8.5 17.0054 8.5 18V18.5C8.5 18.8978 8.34196 19.2794 8.06066 19.5607C7.77936 19.842 7.39782 20 7 20C6.20435 20 5.44129 19.6839 4.87868 19.1213C4.31607 18.5587 4 17.7956 4 17V15H6V13H0V15H2V17C2 18.3261 2.52678 19.5979 3.46447 20.5355C4.40215 21.4732 5.67392 22 7 22C7.92826 22 8.8185 21.6313 9.47487 20.9749C10.1313 20.3185 10.5 19.4283 10.5 18.5V18C10.5 17.5359 10.6844 17.0908 11.0126 16.7626C11.3408 16.4344 11.7859 16.25 12.25 16.25C12.7141 16.25 13.1592 16.4344 13.4874 16.7626C13.8156 17.0908 14 17.5359 14 18C14 19.0609 14.4214 20.0783 15.1716 20.8284C15.9217 21.5786 16.9391 22 18 22C19.0609 22 20.0783 21.5786 20.8284 20.8284C21.5786 20.0783 22 19.0609 22 18C22 16 20 14 20 12C20 10 22 7.5 22 5.5Z" fill="#C2C2C2"/>
</svg>
