<svg width="24" height="25" viewBox="0 0 24 25" fill="none" xmlns="http://www.w3.org/2000/svg">
<path fill-rule="evenodd" clip-rule="evenodd" d="M17.053 2.5C19.492 2.5 21.478 4.485 21.478 6.925V18.064C21.478 20.51 19.487 22.5 17.042 22.5H12.157C9.718 22.5 7.733 20.515 7.733 18.075V17.133C7.733 16.719 8.069 16.383 8.483 16.383C8.897 16.383 9.233 16.719 9.233 17.133V18.075C9.233 19.687 10.545 21 12.157 21H17.042C18.661 21 19.978 19.684 19.978 18.064V6.925C19.978 5.313 18.665 4 17.053 4H12.168C10.55 4 9.233 5.316 9.233 6.934V7.867C9.233 8.281 8.897 8.617 8.483 8.617C8.069 8.617 7.733 8.281 7.733 7.867V6.934C7.733 4.489 9.723 2.5 12.168 2.5H17.053ZM13.3923 9.053L16.3212 11.9698C16.345 11.9935 16.3672 12.0188 16.3876 12.0456L16.3213 11.969C16.3612 12.0084 16.3962 12.0518 16.4258 12.0984C16.4318 12.1101 16.4387 12.1215 16.4452 12.1331C16.4566 12.151 16.4663 12.17 16.4751 12.1894C16.4801 12.2032 16.4858 12.2169 16.4912 12.2308C16.4997 12.2498 16.5063 12.2693 16.5121 12.2891C16.5155 12.3047 16.5195 12.3203 16.523 12.336C16.5285 12.3551 16.532 12.3743 16.5347 12.3936C16.5348 12.4024 16.5359 12.4116 16.5369 12.4209C16.5409 12.4473 16.5423 12.4736 16.5423 12.5L16.535 12.579L16.5341 12.6017C16.5339 12.6034 16.5337 12.6051 16.5334 12.6068L16.5423 12.5C16.5423 12.5555 16.5362 12.6105 16.5242 12.6639C16.5195 12.6797 16.5155 12.6953 16.511 12.7107C16.5063 12.7307 16.4997 12.7502 16.4923 12.7695C16.4858 12.7831 16.4801 12.7968 16.4739 12.8103C16.4663 12.83 16.4566 12.849 16.4461 12.8676C16.4387 12.8785 16.4318 12.8899 16.4247 12.9011C16.414 12.9202 16.4013 12.9383 16.3878 12.9558C16.3786 12.9662 16.37 12.9768 16.3611 12.9872C16.3491 13.0025 16.3355 13.017 16.3213 13.031L13.3923 15.946C13.2463 16.092 13.0543 16.165 12.8633 16.165C12.6713 16.165 12.4783 16.092 12.3323 15.944C12.0393 15.65 12.0413 15.176 12.3343 14.884L13.975 13.25H3.75C3.336 13.25 3 12.914 3 12.5C3 12.086 3.336 11.75 3.75 11.75H13.975L12.3343 10.115C12.0413 9.823 12.0393 9.349 12.3323 9.055C12.6253 8.761 13.0993 8.761 13.3923 9.053Z" fill="#2C7D92"/>
</svg>
