<svg width="117" height="32" viewBox="0 0 117 32" fill="none" xmlns="http://www.w3.org/2000/svg">
<path d="M62.7695 14.2423C62.5347 13.697 62.1004 13.1464 61.4771 12.6038C60.8539 12.0639 59.9959 11.6383 58.9302 11.3378C58.3151 11.1622 58.0453 10.9814 57.9266 10.859C57.7836 10.7127 57.7135 10.4999 57.7135 10.21C57.7135 10.0478 57.7458 9.90415 57.8106 9.7685C57.8807 9.61955 57.9725 9.49454 58.0831 9.38815C58.1964 9.28176 58.3205 9.1993 58.4662 9.13813C58.798 8.99716 59.1434 9.03705 59.4321 9.15675C59.5724 9.21526 59.6776 9.29771 59.7531 9.40677C59.8341 9.5238 59.9123 9.62753 59.9825 9.71796C60.0661 9.82435 60.1578 9.91745 60.2523 9.9999C60.371 10.1036 60.5059 10.1834 60.6516 10.2393C60.9618 10.359 61.3692 10.3537 61.7038 10.218C61.8791 10.1462 62.0356 10.0451 62.1678 9.91479C62.3 9.78446 62.4025 9.63285 62.4727 9.46528C62.5455 9.29505 62.5833 9.10621 62.5833 8.90938C62.5833 8.6434 62.5158 8.39338 62.3729 8.15134C62.1678 7.82951 61.9304 7.54491 61.6714 7.30287C61.4097 7.06083 61.1264 6.85602 60.8242 6.69377C60.5221 6.53153 60.2037 6.40652 59.8772 6.32672C59.5535 6.24693 59.2243 6.20703 58.8979 6.20703C57.8915 6.20703 57.0039 6.53153 56.2566 7.17254C56.2377 7.19116 56.2188 7.20977 56.1999 7.22839C55.7682 7.60874 55.4337 8.04761 55.2044 8.53169C54.9615 9.04237 54.8401 9.61689 54.8401 10.2393C54.8401 10.7526 54.9373 11.2473 55.1315 11.7075C55.3285 12.1756 55.6684 12.6331 56.1432 13.0613C56.6262 13.5002 57.3034 13.8406 58.2099 14.1066C59.0166 14.346 59.4105 14.5747 59.5993 14.7264C59.8583 14.9338 60.0337 15.136 60.112 15.3248C60.201 15.5323 60.2442 15.7477 60.2442 15.9844C60.2442 16.2371 60.1983 16.4685 60.1012 16.6919C60.0013 16.9207 59.8745 17.1122 59.7073 17.2771C59.54 17.442 59.3511 17.5723 59.1245 17.6708C58.906 17.7665 58.6793 17.8117 58.4311 17.8117C58.1047 17.8117 57.8079 17.7399 57.5273 17.5963C57.2521 17.4553 57.0255 17.2452 56.8447 16.9686C56.5803 16.5403 56.1486 16.3063 55.6306 16.3063C55.431 16.3063 55.2394 16.3435 55.0668 16.4153C54.8941 16.4871 54.743 16.5882 54.6108 16.7185C54.4786 16.8489 54.3761 17.0031 54.3032 17.176C54.2304 17.3489 54.1953 17.5324 54.1953 17.7239C54.1953 18.0431 54.2897 18.3251 54.4732 18.5671C54.6944 18.8943 54.9561 19.1895 55.2556 19.4502C55.5578 19.7135 55.8842 19.9342 56.2323 20.1098C56.5749 20.2853 56.9391 20.4183 57.3115 20.5088C57.6865 20.5992 58.0669 20.6444 58.4392 20.6444C59.567 20.6444 60.5841 20.2694 61.469 19.5326C61.4879 19.5167 61.5068 19.498 61.5257 19.4768C62.5833 18.5671 63.1175 17.3808 63.1175 15.9499C63.1175 15.3514 63.0015 14.7796 62.7695 14.2423Z" fill="#7D7D7D"/>
<path d="M38.5975 6.21484C38.2171 6.21484 37.8771 6.35581 37.61 6.61647C37.3429 6.87979 37.1999 7.21759 37.1999 7.58996V15.3246C37.1999 15.6678 37.1352 15.9896 37.003 16.2875C36.8708 16.5907 36.6873 16.8593 36.458 17.0854C36.2314 17.3115 35.9589 17.495 35.6513 17.6227C35.0443 17.8807 34.2942 17.8807 33.6899 17.62C33.3823 17.4871 33.1098 17.3035 32.8859 17.0801C32.6593 16.854 32.4785 16.5854 32.3436 16.2822C32.2141 15.9843 32.1467 15.6624 32.1467 15.3246V7.59262C32.1467 7.21759 32.0037 6.88245 31.7366 6.61913C31.4695 6.35581 31.1268 6.21484 30.7491 6.21484C30.3687 6.21484 30.0288 6.35315 29.7617 6.61647C29.4946 6.87979 29.3516 7.21759 29.3516 7.58996V15.3246C29.3516 16.7636 29.8777 18.011 30.911 19.0297C31.9362 20.0538 33.1989 20.5724 34.6666 20.5724C35.1495 20.5724 35.627 20.5086 36.0803 20.3836C36.5308 20.2586 36.9571 20.0777 37.351 19.849C37.7449 19.6202 38.1065 19.3409 38.4275 19.0244C38.7486 18.7079 39.0292 18.3488 39.2612 17.9578C39.4905 17.5695 39.6713 17.1519 39.7981 16.7131C39.9276 16.2689 39.9923 15.8034 39.9923 15.3246V7.59262C39.9923 7.22025 39.852 6.88245 39.5822 6.61913C39.3178 6.35581 38.9752 6.21484 38.5975 6.21484Z" fill="#7D7D7D"/>
<path d="M51.5206 8.96898C51.8983 8.96898 52.2409 8.83067 52.508 8.56735C52.7751 8.30403 52.9154 7.96624 52.9154 7.59386C52.9154 7.22149 52.7751 6.8837 52.508 6.62038C52.2409 6.35706 51.8983 6.21875 51.5206 6.21875H43.6749C43.4779 6.21875 43.2918 6.25333 43.1245 6.32514C42.9572 6.3943 42.8088 6.49271 42.682 6.61772C42.5525 6.74539 42.4527 6.89434 42.3826 7.06191C42.3124 7.22947 42.2773 7.41034 42.2773 7.59652V19.2012C42.2773 19.3954 42.3124 19.5762 42.3853 19.7438C42.4554 19.9087 42.5552 20.055 42.682 20.18C42.8088 20.305 42.9572 20.4034 43.1245 20.4726C43.2918 20.5417 43.4779 20.579 43.6749 20.579H51.5206C51.8983 20.579 52.2409 20.438 52.508 20.1747C52.7751 19.9114 52.9154 19.5736 52.9154 19.2012C52.9154 18.8288 52.7751 18.491 52.5053 18.2251C52.2382 17.9617 51.8956 17.8234 51.5179 17.8234H45.0697V14.77H49.5592C49.9396 14.77 50.2795 14.6317 50.5466 14.3684C50.8137 14.105 50.954 13.7672 50.954 13.3949C50.954 13.0225 50.8137 12.6847 50.5439 12.4214C50.2768 12.1581 49.9342 12.0198 49.5565 12.0198H45.067V8.96898H51.5206Z" fill="#7D7D7D"/>
<path d="M73.8415 6.21484H65.3429C64.9624 6.21484 64.6225 6.35315 64.3554 6.61647C64.0883 6.87979 63.9453 7.21759 63.9453 7.58996C63.9453 7.96499 64.0856 8.30012 64.3527 8.56344C64.6198 8.82676 64.9624 8.96773 65.3402 8.96773H68.1919V19.1946C68.1919 19.567 68.3322 19.9048 68.5993 20.1681C68.8664 20.4315 69.2091 20.5724 69.5868 20.5724C69.9645 20.5724 70.3071 20.4341 70.5742 20.1708C70.8413 19.9075 70.9843 19.5697 70.9843 19.1973V8.97039H73.8361C74.2138 8.97039 74.5564 8.83208 74.8235 8.56876C75.0906 8.30544 75.2336 7.96765 75.2336 7.59528C75.2336 7.22025 75.0933 6.88511 74.8262 6.62179C74.5618 6.35581 74.2192 6.21484 73.8415 6.21484Z" fill="#7D7D7D"/>
<path d="M86.2432 8.75023C86.6209 8.75023 86.9636 8.61192 87.2307 8.3486C87.4978 8.08528 87.6381 7.74749 87.6381 7.37511C87.6381 7.00274 87.4978 6.66495 87.2307 6.40163C86.9636 6.13831 86.6209 6 86.2432 6H78.3975C78.2006 6 78.0144 6.03458 77.8472 6.10639C77.6799 6.17555 77.5315 6.27396 77.4047 6.39897C77.2752 6.52664 77.1754 6.67559 77.1052 6.84316C77.0351 7.01072 77 7.19159 77 7.37777V18.9825C77 19.1766 77.0351 19.3575 77.1079 19.5251C77.1781 19.69 77.2779 19.8363 77.4047 19.9613C77.5315 20.0863 77.6799 20.1847 77.8472 20.2538C78.0144 20.323 78.2006 20.3602 78.3975 20.3602H86.2432C86.6209 20.3602 86.9636 20.2193 87.2307 19.9559C87.4978 19.6926 87.6381 19.3548 87.6381 18.9825C87.6381 18.6101 87.4978 18.2723 87.228 18.0063C86.9609 17.743 86.6182 17.6047 86.2405 17.6047H79.7924V14.5512H84.2818C84.6622 14.5512 85.0021 14.4129 85.2692 14.1496C85.5363 13.8863 85.6793 13.5485 85.6793 13.1761C85.6793 12.8038 85.539 12.466 85.2692 12.2026C85.0021 11.9393 84.6595 11.801 84.2818 11.801H79.7951V8.75023H86.2432Z" fill="#7D7D7D"/>
<path d="M100.835 8.32406C99.4159 6.92501 97.6865 6.21484 95.69 6.21484C93.6908 6.21484 91.956 6.92501 90.5369 8.32406C89.1232 9.71779 88.4082 11.4227 88.4082 13.3963C88.4082 15.3725 89.1259 17.0828 90.5369 18.4765C91.9506 19.8702 93.6854 20.5777 95.69 20.5777C97.6892 20.5777 99.4186 19.8702 100.835 18.4765C102.254 17.0774 102.975 15.3672 102.975 13.3963C102.975 12.4042 102.794 11.4786 102.44 10.6407C102.084 9.80291 101.545 9.02359 100.835 8.32406ZM95.6927 17.8195C94.4382 17.8195 93.3994 17.3966 92.5172 16.5242C91.635 15.6545 91.2033 14.6304 91.2033 13.3936C91.2033 12.7712 91.3112 12.1994 91.5271 11.694C91.7402 11.1887 92.0747 10.7099 92.5172 10.271C92.9597 9.83482 93.448 9.50501 93.9633 9.28957C94.4813 9.07678 95.0614 8.96773 95.6927 8.96773C96.9419 8.96773 97.9806 9.3933 98.8682 10.271C99.7505 11.1408 100.182 12.1648 100.182 13.3936C100.182 14.6304 99.7532 15.6545 98.8682 16.5242C97.986 17.3966 96.9446 17.8195 95.6927 17.8195Z" fill="#7D7D7D"/>
<path d="M116.591 6.61913C116.324 6.35581 115.982 6.2175 115.604 6.2175C115.224 6.2175 114.884 6.35581 114.617 6.61913C114.349 6.88245 114.206 7.22025 114.206 7.59262V15.1917L107.532 6.73084L107.51 6.70425C107.219 6.38507 106.852 6.21484 106.444 6.21484C106.247 6.21484 106.061 6.24942 105.894 6.32124C105.727 6.39039 105.578 6.49146 105.452 6.61381C105.322 6.74148 105.222 6.89043 105.152 7.058C105.082 7.22557 105.047 7.40377 105.047 7.59262V19.1973C105.047 19.5697 105.187 19.9075 105.454 20.1708C105.721 20.4341 106.064 20.5751 106.442 20.5751C106.819 20.5751 107.162 20.4341 107.429 20.1708C107.696 19.9075 107.839 19.5697 107.839 19.1973V11.6142L114.522 20.0777L114.549 20.107C114.835 20.4128 115.199 20.5751 115.601 20.5751C115.79 20.5751 115.974 20.5405 116.144 20.4713C116.314 20.4022 116.465 20.3038 116.594 20.1761C116.721 20.0511 116.821 19.9048 116.891 19.7399C116.961 19.5723 116.999 19.3915 116.999 19.2V7.59262C117.002 7.21759 116.859 6.88245 116.591 6.61913Z" fill="#7D7D7D"/>
<path d="M28.2804 29.4275C28.2804 30.8478 27.1121 31.9995 25.6714 31.9995C24.2307 31.9995 23.0625 30.8478 23.0625 29.4275C23.0625 28.0072 24.2307 26.8555 25.6714 26.8555C27.1121 26.8555 28.2804 28.0045 28.2804 29.4275Z" fill="#2C7D92"/>
<path d="M20.6569 26.5091C20.808 26.698 21.2585 27.1475 21.8871 26.7219L21.9573 26.6714C21.9627 26.6687 21.9654 26.6661 21.9708 26.6607C21.9978 26.6395 22.0193 26.6235 22.0436 26.6076L24.2937 24.9744C24.9601 24.4904 24.4664 23.8148 24.4556 23.7988L23.3467 22.312C27.7175 17.6733 28.2112 10.4546 24.1939 5.24407C22.0113 2.42203 18.8492 0.602731 15.2825 0.123968C11.7185 -0.354795 8.17608 0.562834 5.31084 2.70929C5.27307 2.73855 5.238 2.76781 5.20023 2.7944C4.14262 3.65618 4.7065 4.56583 4.7092 4.56849L6.13642 6.53142C6.13642 6.53142 6.78124 7.39585 7.83074 6.66175C7.83074 6.66175 7.83344 6.66175 7.83344 6.65909C7.94136 6.57131 8.04928 6.48354 8.1599 6.40109C10.0242 5.00469 12.3283 4.4089 14.6485 4.7201C16.9688 5.03129 19.0246 6.21756 20.441 8.05282C23.3656 11.8457 22.6129 17.277 18.7656 20.1602C18.5417 20.3278 18.3096 20.4794 18.0749 20.623C18.0641 20.631 18.056 20.639 18.0479 20.6443C17.1279 21.28 17.3681 21.9343 17.5407 22.2162L17.6459 22.3599L20.6569 26.5091Z" fill="#2C7D92"/>
<path d="M15.2151 26.4539C15.3176 26.4406 15.4201 26.4273 15.5254 26.4113C16.5101 26.2171 16.1378 25.483 15.9436 25.1931L15.8572 25.0734V25.0708L14.4273 23.1052C14.198 22.8099 13.4506 21.9774 12.1907 21.8311C12.1394 21.8258 12.0963 21.8178 12.0531 21.8098C9.86773 21.4561 7.85505 20.2938 6.48449 18.5144C4.89538 16.453 4.36388 13.8251 4.91697 11.3808C4.91966 11.3728 4.91967 11.3622 4.92236 11.3542C5.11931 10.4658 4.53386 9.51627 4.40975 9.32743L2.74241 7.03202C2.74241 7.03202 2.74241 7.03202 2.74241 7.02936L2.73431 7.01606C2.65337 6.90701 2.05982 6.18089 1.43929 7.298C-0.851283 11.7851 -0.387233 17.2643 2.73701 21.3178C5.29738 24.6399 9.30386 26.5656 13.483 26.5656C14.0442 26.5656 14.6081 26.531 15.1719 26.4592C15.1854 26.4565 15.1989 26.4539 15.2151 26.4539Z" fill="#2C7D92"/>
</svg>
