<svg width="21" height="20" viewBox="0 0 21 20" fill="none" xmlns="http://www.w3.org/2000/svg">
<path d="M17.1581 15.7944C17.6224 15.7944 18 16.1769 18 16.6472C18 17.1184 17.6224 17.5 17.1581 17.5H12.3997C11.9355 17.5 11.5579 17.1184 11.5579 16.6472C11.5579 16.1769 11.9355 15.7944 12.3997 15.7944H17.1581ZM13.8582 3.08255L15.0874 4.05899C15.5914 4.45314 15.9275 4.97271 16.0424 5.51916C16.1751 6.12025 16.0336 6.71059 15.6357 7.2212L8.31366 16.6899C7.97763 17.1199 7.48242 17.3618 6.95185 17.3707L4.03366 17.4066C3.87449 17.4066 3.74184 17.2991 3.70647 17.1468L3.04325 14.2712C2.92829 13.7427 3.04325 13.1963 3.37928 12.7752L8.57011 6.05664C8.65854 5.94915 8.81771 5.93213 8.92383 6.01185L11.108 7.74973C11.2495 7.86618 11.4441 7.92889 11.6475 7.90201C12.0808 7.84827 12.3726 7.45411 12.3284 7.03308C12.3018 6.81808 12.1957 6.63892 12.0542 6.50455C12.01 6.46872 9.93193 4.80251 9.93193 4.80251C9.79929 4.69501 9.77276 4.49793 9.87887 4.36446L10.7013 3.29755C11.4618 2.32111 12.7882 2.23153 13.8582 3.08255Z" fill="#2C7D92"/>
</svg>
